HIERARCHY
ROOT Hips
{
	OFFSET 0.000000 0.000000 0.000000
	CHANNELS 6 Xposition Yposition Zposition Xrotation Yrotation Zrotation
	JOINT LeftUpLeg_virtual
	{
		OFFSET 0.000000 0.000000 0.000000
		CHANNELS 3 Xrotation Yrotation Zrotation
		JOINT LeftUpLeg
		{
			OFFSET 10.205400 -3.823500 0.155100
			CHANNELS 3 Xrotation Yrotation Zrotation
			JOINT LeftLeg
			{
				OFFSET 0.708757 -12.982077 0.567790
				CHANNELS 3 Xrotation Yrotation Zrotation
				JOINT LeftFoot
				{
					OFFSET -0.708756 -10.717838 -2.184338
					CHANNELS 3 Xrotation Yrotation Zrotation
					JOINT LeftToeBase
					{
						OFFSET 0.108149 -7.191104 7.560241
						CHANNELS 3 Xrotation Yrotation Zrotation
						JOINT LeftToe_End
						{
							OFFSET 0.070230 0.081724 4.490308
							CHANNELS 3 Xrotation Yrotation Zrotation
							End Site
							{
								OFFSET 0 0 0
							}
						}
					}
				}
			}
		}
	}
	JOINT RightUpLeg_virtual
	{
		OFFSET 0.000000 0.000000 0.000000
		CHANNELS 3 Xrotation Yrotation Zrotation
		JOINT RightUpLeg
		{
			OFFSET -10.205400 -3.823500 0.005500
			CHANNELS 3 Xrotation Yrotation Zrotation
			JOINT RightLeg
			{
				OFFSET -0.708756 -12.982134 0.610632
				CHANNELS 3 Xrotation Yrotation Zrotation
				JOINT RightFoot
				{
					OFFSET 0.708754 -10.717769 -1.945823
					CHANNELS 3 Xrotation Yrotation Zrotation
					JOINT RightToeBase
					{
						OFFSET -0.108140 -7.191069 7.372968
						CHANNELS 3 Xrotation Yrotation Zrotation
						JOINT RightToe_End
						{
							OFFSET -0.070227 0.081735 4.479403
							CHANNELS 3 Xrotation Yrotation Zrotation
							End Site
							{
								OFFSET 0 0 0
							}
						}
					}
				}
			}
		}
	}
	JOINT Spine_virtual
	{
		OFFSET 0.000000 0.000000 0.000000
		CHANNELS 3 Xrotation Yrotation Zrotation
		JOINT Spine
		{
			OFFSET 0.000000 6.876099 0.125700
			CHANNELS 3 Xrotation Yrotation Zrotation
			JOINT Spine1
			{
				OFFSET 0.000000 5.730043 0.104720
				CHANNELS 3 Xrotation Yrotation Zrotation
				JOINT Spine1_split
				{
					OFFSET 0.000000 5.730043 0.104720
					CHANNELS 3 Xrotation Yrotation Zrotation
					JOINT Spine2
					{
						OFFSET 0.000000 5.730043 0.104720
						CHANNELS 3 Xrotation Yrotation Zrotation
						JOINT Neck_virtual
						{
							OFFSET 0.000000 0.000000 0.000000
							CHANNELS 3 Xrotation Yrotation Zrotation
							JOINT Neck
							{
								OFFSET 0.000000 10.314075 0.188496
								CHANNELS 3 Xrotation Yrotation Zrotation
								JOINT Head
								{
									OFFSET 0.000000 7.643700 -2.377400
									CHANNELS 3 Xrotation Yrotation Zrotation
									JOINT HeadTop_End
									{
										OFFSET 0.000000 43.788605 -13.619600
										CHANNELS 3 Xrotation Yrotation Zrotation
										End Site
										{
											OFFSET 0 0 0
										}
									}
								}
							}
						}
						JOINT LeftShoulder_virtual
						{
							OFFSET 0.000000 0.000000 0.000000
							CHANNELS 3 Xrotation Yrotation Zrotation
							JOINT LeftShoulder
							{
								OFFSET 2.196100 4.412489 0.087492
								CHANNELS 3 Xrotation Yrotation Zrotation
								JOINT LeftShoulder_split
								{
									OFFSET 2.196100 4.412489 0.087492
									CHANNELS 3 Xrotation Yrotation Zrotation
									JOINT LeftArm
									{
										OFFSET 8.771219 -2.981674 -0.026999
										CHANNELS 3 Xrotation Yrotation Zrotation
										JOINT LeftForeArm
										{
											OFFSET 8.512804 0.000000 -0.000000
											CHANNELS 3 Xrotation Yrotation Zrotation
											JOINT LeftHand
											{
												OFFSET 18.484802 0.000000 -0.000000
												CHANNELS 3 Xrotation Yrotation Zrotation
												End Site
												{
													OFFSET 0 0 0
												}
											}
										}
									}
								}
							}
						}
						JOINT RightShoulder_virtual
						{
							OFFSET 0.000000 0.000000 0.000000
							CHANNELS 3 Xrotation Yrotation Zrotation
							JOINT RightShoulder
							{
								OFFSET -2.196100 4.412496 0.070690
								CHANNELS 3 Xrotation Yrotation Zrotation
								JOINT RightShoulder_split
								{
									OFFSET -2.196100 4.412496 0.070690
									CHANNELS 3 Xrotation Yrotation Zrotation
									JOINT RightArm
									{
										OFFSET -8.771282 -2.981682 -0.094208
										CHANNELS 3 Xrotation Yrotation Zrotation
										JOINT RightForeArm
										{
											OFFSET -8.494598 0.000000 0.000000
											CHANNELS 3 Xrotation Yrotation Zrotation
											JOINT RightHand
											{
												OFFSET -18.483803 0.000000 0.000001
												CHANNELS 3 Xrotation Yrotation Zrotation
												End Site
												{
													OFFSET 0 0 0
												}
											}
										}
									}
								}
							}
						}
					}
				}
			}
		}
	}
}
MOTION
Frames: 10
Frame Time: 0.03333333
-14.724006 32.774227 -14.161131 0.000000 0.000000 0.000000 4.477497 -2.096133 -0.114603 -45.033920 2.164552 10.697758 42.133248 10.998284 1.229333 16.372438 8.507147 -7.002431 -3.548923 0.117120 0.170063 0.000000 0.000000 0.000000 4.843388 -1.773945 -0.084269 6.206652 -12.885216 -5.616987 20.892835 -6.142571 -2.138125 -18.978135 -8.015772 22.048047 -14.677646 0.338881 -1.270181 0.000000 0.000000 0.000000 4.027253 -0.831787 -1.010679 2.528243 1.817328 -4.011729 2.108397 2.367721 -0.835149 0.832700 0.332404 0.169816 0.000000 0.000000 0.000000 2.220443 2.408099 -1.248803 0.976237 0.577258 1.054039 -1.487172 11.137020 3.386485 0.000000 0.000000 0.000000 1.603167 2.348120 -1.437374 0.510395 -2.860056 -11.944064 -1.079015 0.124048 2.005658 -11.446593 23.003404 -36.360468 -0.710418 -63.019055 0.103529 0.000000 0.000000 0.000000 1.846336 2.746842 -0.573524 1.026516 -3.005429 10.051633 2.269572 1.899346 -2.715130 -15.265413 -16.020147 46.793452 0.359447 15.487328 -0.055254 0.000000 0.000000 0.000000 
-14.268531 33.190121 -14.325418 0.000000 0.000000 0.000000 4.730315 -2.541486 0.036741 -39.468979 0.284202 14.623587 46.272339 10.427931 0.292876 13.394898 11.683518 -4.764698 -0.994934 0.544816 -3.123669 0.000000 0.000000 0.000000 5.414669 -1.723662 -0.067744 4.061677 -13.777679 -8.795018 20.453577 -4.591676 -1.274980 -15.415816 -5.422218 21.988291 -16.639082 0.798403 -2.543551 0.000000 0.000000 0.000000 4.352649 -0.624467 -0.921156 2.376992 2.564857 -4.075946 1.585631 3.306136 -1.286566 0.634915 -0.013056 0.351894 0.000000 0.000000 0.000000 1.786045 3.291704 -1.589865 0.467453 0.312153 1.784431 -1.956294 9.177040 3.652978 0.000000 0.000000 0.000000 1.160294 3.278440 -1.931864 0.785119 -2.954206 -12.410827 -1.441744 -0.309975 2.153434 2.579160 29.110936 -43.654823 -0.318330 -64.877037 0.265258 0.000000 0.000000 0.000000 1.437521 3.660039 -1.025266 1.010602 -2.850124 9.435606 2.857618 1.633570 -2.684489 -17.777490 -16.142107 44.547679 0.327222 16.768316 -0.353726 0.000000 0.000000 0.000000 
-13.751824 33.573898 -14.476221 0.000000 0.000000 0.000000 5.298413 -2.782598 -0.249701 -33.266443 -0.927101 19.370068 46.229111 10.894891 -0.501912 11.473677 15.633306 -1.622238 2.678009 0.869921 -6.909202 0.000000 0.000000 0.000000 6.236831 -1.337957 -0.354204 3.753405 -13.745463 -11.302674 17.748663 -3.220238 -0.553338 -13.328231 -3.909123 21.201915 -17.044793 0.895937 -3.176549 0.000000 0.000000 0.000000 5.036909 -0.440684 -1.133779 1.990049 3.096129 -3.974726 0.990827 4.087053 -1.573713 0.699109 -0.107488 0.332476 0.000000 0.000000 0.000000 1.164102 4.010825 -1.794946 -0.106255 0.103884 2.311185 -1.942278 7.097624 3.872185 0.000000 0.000000 0.000000 0.606280 4.025704 -2.224403 1.019295 -2.895564 -11.994886 -2.014039 -1.095226 2.037192 14.906500 32.868520 -50.849993 0.175965 -63.742051 0.553009 0.000000 0.000000 0.000000 0.965350 4.406096 -1.328279 1.082957 -2.870695 8.922210 2.986731 1.555282 -2.419968 -19.556768 -16.957676 42.566316 0.162512 17.795486 -0.514290 0.000000 0.000000 0.000000 
-13.172671 33.852654 -14.628836 0.000000 0.000000 0.000000 6.173096 -2.111660 -0.947651 -27.347249 -1.135470 24.460454 42.656649 11.710142 -0.817061 10.446151 18.803219 0.525889 4.793230 1.052613 -9.967749 0.000000 0.000000 0.000000 7.036238 -0.033386 -1.008870 5.123173 -12.942490 -12.770724 13.509705 -2.200795 -0.073075 -12.333521 -3.582220 21.044643 -16.824235 0.675410 -3.430081 0.000000 0.000000 0.000000 5.955248 0.431606 -1.584313 1.475437 3.368638 -3.728094 0.386490 4.592696 -1.697756 1.027113 -0.037184 0.496816 0.000000 0.000000 0.000000 0.449931 4.462335 -1.863293 -0.659705 -0.084419 2.540227 -1.487307 5.034994 4.058574 0.000000 0.000000 0.000000 0.006388 4.474663 -2.295488 1.208712 -2.756751 -10.879732 -2.773558 -1.615961 1.424726 23.233184 35.195473 -56.197567 0.543001 -60.023661 0.801472 0.000000 0.000000 0.000000 0.483997 4.878890 -1.463096 1.209326 -2.977924 8.486262 2.691511 1.617644 -1.756805 -20.592138 -18.193312 40.606059 -0.058586 18.814951 -0.515359 0.000000 0.000000 0.000000 
-12.498958 33.923141 -14.840910 0.000000 0.000000 0.000000 7.107214 0.128680 -1.790828 -23.247316 -0.051451 29.336014 37.592371 11.984829 -0.730249 10.311170 19.561693 0.241215 4.001834 1.241884 -11.355121 0.000000 0.000000 0.000000 7.770275 2.463476 -1.868979 7.182092 -11.808513 -13.448256 8.707053 -1.476718 0.087543 -12.104510 -4.255727 22.815656 -16.828966 0.264160 -3.707902 0.000000 0.000000 0.000000 6.947597 2.136642 -2.159453 1.005815 3.388471 -3.356015 -0.170199 4.768778 -1.712498 1.247585 0.347659 0.474507 0.000000 0.000000 0.000000 -0.293608 4.599726 -1.837838 -1.065839 -0.338117 2.498183 -0.761165 3.203979 4.200519 0.000000 0.000000 0.000000 -0.558995 4.597738 -2.186391 1.339792 -2.542179 -9.298347 -3.575624 -1.796047 0.462931 27.151931 37.130408 -59.006339 0.650137 -54.033668 0.880010 0.000000 0.000000 0.000000 0.067248 5.023295 -1.469929 1.340144 -3.171357 8.136271 2.308514 1.538900 -0.872234 -20.826437 -19.447032 38.614802 -0.230313 20.006582 -0.404155 0.000000 0.000000 0.000000 
-11.718104 33.760475 -15.051218 0.000000 0.000000 0.000000 8.050463 3.686174 -2.532272 -21.569181 1.701568 33.381460 32.855881 10.900427 -0.443527 11.542488 16.988210 -3.727082 -0.107472 1.468304 -10.266552 0.000000 0.000000 0.000000 8.339674 6.010554 -2.627577 9.400817 -10.714840 -13.709487 4.732312 -0.900989 -0.052690 -12.733756 -5.785534 26.187084 -16.649230 -0.184818 -4.219863 0.000000 0.000000 0.000000 7.883965 4.855697 -2.622432 0.629816 3.199245 -2.960241 -0.618810 4.627078 -1.683990 1.333189 0.935882 0.308855 0.000000 0.000000 0.000000 -0.984274 4.444797 -1.782305 -1.322221 -0.684989 2.305540 0.054503 1.677161 4.305344 0.000000 0.000000 0.000000 -1.014812 4.438713 -1.986626 1.415916 -2.361612 -7.670039 -4.447743 -1.569575 -0.838515 27.444839 39.073750 -59.450308 0.468152 -46.554385 0.773072 0.000000 0.000000 0.000000 -0.265571 4.857506 -1.430143 1.419251 -3.448867 7.831154 2.000941 1.436430 0.150687 -20.464157 -20.390000 36.592295 -0.188533 21.426512 -0.342903 0.000000 0.000000 0.000000 
-10.806608 33.409256 -15.268236 0.000000 0.000000 0.000000 8.834591 7.894304 -2.804197 -21.675718 3.309244 35.884841 29.694968 8.601162 -0.069287 12.482427 11.871145 -10.077912 -5.738172 1.371979 -7.135697 0.000000 0.000000 0.000000 8.790167 10.283987 -3.009121 11.384395 -10.121831 -14.035528 2.888671 -1.032504 -0.334870 -14.239188 -8.207857 28.888760 -15.003530 -0.599538 -4.653728 0.000000 0.000000 0.000000 8.718386 8.511393 -2.794533 0.337174 2.886835 -2.690998 -0.951197 4.254626 -1.647500 1.325463 1.316901 0.176886 0.000000 0.000000 0.000000 -1.543729 4.079955 -1.733203 -1.502541 -1.137353 2.071608 0.726893 0.581040 4.335862 0.000000 0.000000 0.000000 -1.289953 4.093477 -1.768250 1.454667 -2.234272 -6.388089 -4.781395 -1.107341 -1.927954 25.419874 40.444798 -57.959858 0.240875 -38.959894 0.604012 0.000000 0.000000 0.000000 -0.514931 4.477764 -1.395658 1.414946 -3.835008 7.683722 1.856630 1.431384 0.869362 -20.008276 -21.150417 34.879498 0.112117 23.139926 -0.451470 0.000000 0.000000 0.000000 
-9.777360 32.953617 -15.545858 0.000000 0.000000 0.000000 9.435715 12.316446 -2.475359 -22.602320 4.755082 36.352056 28.184344 6.261064 0.398948 10.954039 6.519886 -16.859180 -9.043094 0.816450 -3.424082 0.000000 0.000000 0.000000 9.180014 14.475355 -2.756005 12.731611 -10.068552 -15.015609 3.199187 -2.039719 -0.803995 -16.985333 -11.225389 29.018762 -11.748936 -0.892079 -4.737433 0.000000 0.000000 0.000000 9.425517 12.280094 -2.543218 0.019222 2.515441 -2.569993 -1.137868 3.773716 -1.615237 1.424589 1.551010 -0.123634 0.000000 0.000000 0.000000 -1.916588 3.625416 -1.714941 -1.628009 -1.630296 1.935058 1.191640 -0.033351 4.225236 0.000000 0.000000 0.000000 -1.374332 3.667535 -1.580641 1.445565 -2.194255 -5.685861 -4.816317 -0.838463 -2.553172 22.308713 40.764430 -55.444091 0.009732 -32.313509 0.400085 0.000000 0.000000 0.000000 -0.657126 4.005757 -1.397320 1.333361 -4.301529 7.751992 1.676786 1.509845 1.096712 -20.167747 -21.753850 33.899953 0.600711 25.340183 -0.739334 0.000000 0.000000 0.000000 
-8.623942 32.530186 -15.812254 0.000000 0.000000 0.000000 9.847893 16.338847 -1.634961 -22.923040 6.022801 34.743314 27.417313 4.666687 1.055362 7.354666 2.836265 -23.569373 -8.895063 0.236348 -0.479104 0.000000 0.000000 0.000000 9.544635 18.113575 -1.919299 13.031597 -10.178205 -17.075931 6.145187 -3.694259 -1.290258 -20.210181 -13.871045 25.977031 -8.459501 -0.966505 -4.258896 0.000000 0.000000 0.000000 9.942706 15.828871 -1.786966 -0.412386 2.136690 -2.592435 -1.165008 3.297893 -1.570921 1.638248 1.311487 -0.140126 0.000000 0.000000 0.000000 -2.037686 3.203260 -1.707465 -1.801865 -2.026388 1.920475 1.368812 -0.154856 3.922852 0.000000 0.000000 0.000000 -1.330760 3.267326 -1.438582 1.390822 -2.260516 -5.752495 -4.463750 -0.825863 -2.646164 19.062278 39.903526 -52.861139 -0.205062 -27.312072 0.178399 0.000000 0.000000 0.000000 -0.724263 3.563702 -1.410329 1.231969 -4.726462 8.052040 1.370648 1.659875 0.900927 -21.364232 -22.366629 33.982974 1.110809 28.190168 -1.146361 0.000000 0.000000 0.000000 
-7.340708 32.196472 -16.081861 0.000000 0.000000 0.000000 9.953040 19.572414 -0.350755 -22.101345 6.888023 31.305144 26.857557 3.949511 1.889093 2.771661 1.621320 -29.832589 -6.939341 -0.042131 1.272056 0.000000 0.000000 0.000000 9.958835 20.609334 -0.640660 11.512199 -10.030514 -20.405018 11.433429 -5.554139 -1.614002 -22.071881 -15.262375 21.231354 -7.605662 -0.856734 -3.230809 0.000000 0.000000 0.000000 10.167070 18.522896 -0.611304 -0.926043 1.783811 -2.675430 -1.055893 2.889370 -1.483315 1.771839 0.682129 -0.107858 0.000000 0.000000 0.000000 -1.921567 2.864491 -1.684233 -2.038028 -2.248900 1.971254 1.290321 0.190092 3.407152 0.000000 0.000000 0.000000 -1.230988 2.936752 -1.324277 1.306038 -2.432323 -6.437512 -4.122978 -0.836031 -2.370542 16.292510 38.028837 -50.900793 -0.361104 -24.091160 -0.058410 0.000000 0.000000 0.000000 -0.722582 3.191192 -1.390197 1.157418 -4.982408 8.622550 0.857979 1.851336 0.461300 -23.343176 -22.976738 35.382576 1.482159 32.026552 -1.503342 0.000000 0.000000 0.000000 
